# xmcd
#
# Track frame offsets: 
#        150
#        10517
#        24384
#        36951
#        49736
#        62799
#        86710
#        98696
#        111913
#        128164
#        140465
#        164516
#        178165
#        191957
#        205041
#        215647
#        226608
#        239334
#        251446
#        265160
#        279663
#        292131
#        306807
#        321249
#        332193
#
# Disc length: 4621 seconds
#
# Revision: 0
# Processed by: cddbd v1.5.2PL0 Copyright (c) Steve Scherf et al.
# Submitted via: ExactAudioCopy v0.99pb3
#
DISCID=74120b19
DTITLE=Various Artist - Led Zeppelin's Jukebox
DYEAR=2006
DGENRE=Blues
TTITLE0=Elvis Presley - Baby, Let's Play House
TTITLE1=B.B. King - Three O'Clock Blues
TTITLE2=Elmore James - Dust My Broom
TTITLE3=Howlin' Wolf - No Place to Go
TTITLE4=Howlin' Wolf - Evil
TTITLE5=Charles Mingus - Haitian Fight Song
TTITLE6=Big Bill Broonzy - Truckin' Little Woman
TTITLE7=Ray Charles - I Got a Woman
TTITLE8=Buddy Rich - Gene Krupa - The Drum Battle
TTITLE9=Tiny Bradshaw - The Train Kept A-Rollin'
TTITLE10=Muddy Waters - Mannish Boy
TTITLE11=Williamson, Sonny Boy I - Good Morning Little School Girl
TTITLE12=Sonny Boy Williamson [II] - Eyesight to the Blind
TTITLE13=Snooks Eaglin - Bottle Up and Go
TTITLE14=Chuck Berry - Maybellene
TTITLE15=Little Richard - Tutti Frutti
TTITLE16=Robert Johnson - Traveling Riverside Blues
TTITLE17=Arthur McKay - She Squeezed My Lemon
TTITLE18=Leadbelly - Gallis Pole
TTITLE19=Kansas Joe - Memphis Minnie - When the Levee Breaks
TTITLE20=Blind Boy Fuller - I Want Some of Your Pie
TTITLE21=Josh White - In My Time of Dying
TTITLE22=Blind Willie Johnson - Nobody's Fault But Mine
TTITLE23=Elvis Presley - Mystery Train
TTITLE24=John Lee Hooker - Boogie Chillen'
EXTD=
EXTT0=
EXTT1=
EXTT2=
EXTT3=
EXTT4=
EXTT5=
EXTT6=
EXTT7=
EXTT8=
EXTT9=
EXTT10=
EXTT11=
EXTT12=
EXTT13=
EXTT14=
EXTT15=
EXTT16=
EXTT17=
EXTT18=
EXTT19=
EXTT20=
EXTT21=
EXTT22=
EXTT23=
EXTT24=
PLAYORDER=
